<?xml version="1.0" standalone="no"?>
<!DOCTYPE svg PUBLIC "-//W3C//DTD SVG 20010904//EN"
 "http://www.w3.org/TR/2001/REC-SVG-20010904/DTD/svg10.dtd">
<svg version="1.0" xmlns="http://www.w3.org/2000/svg"
 width="1280.000000pt" height="1280.000000pt" viewBox="0 0 1280.000000 1280.000000"
 preserveAspectRatio="xMidYMid meet">
<metadata>
Created by potrace 1.14, written by Peter Selinger 2001-2017
</metadata>
<g transform="translate(0.000000,1280.000000) scale(0.100000,-0.100000)"
fill="#000000" stroke="none">
<path d="M4101 12778 c-5 -13 -17 -142 -26 -288 -9 -146 -20 -323 -25 -395 -6
-71 -21 -290 -35 -485 -14 -195 -28 -357 -33 -361 -4 -3 -113 -2 -242 2 -509
16 -804 9 -883 -23 -32 -12 -47 -36 -47 -72 0 -45 31 -56 164 -56 513 0 735
-118 801 -426 8 -38 22 -159 30 -269 8 -110 20 -254 26 -320 5 -66 12 -286 16
-490 4 -316 2 -413 -16 -660 -11 -159 -27 -398 -36 -530 -22 -333 -43 -640
-55 -770 -24 -277 -22 -573 10 -1345 10 -234 14 -277 29 -290 9 -8 38 -32 64
-54 234 -188 437 -488 532 -785 72 -227 104 -387 130 -656 19 -201 19 -344 0
-522 -18 -177 -29 -226 -115 -528 -148 -520 -189 -710 -210 -990 -36 -452 75
-894 320 -1285 320 -511 701 -905 1096 -1133 l81 -47 181 0 181 0 7 34 c9 48
-10 96 -54 138 -20 20 -104 81 -187 136 -352 236 -428 294 -490 373 -70 89
-98 152 -103 235 -9 147 57 258 268 445 108 96 213 205 265 274 61 82 129 222
160 330 110 380 35 722 -235 1070 -83 108 -260 283 -380 379 -109 87 -147 124
-195 191 -98 138 -161 294 -189 471 -33 209 -10 398 66 546 63 123 61 152 -31
340 -111 229 -156 382 -195 663 -33 235 -39 425 -32 995 6 519 7 557 25 580
l18 25 319 3 c429 5 1203 -15 1319 -33 165 -26 307 -91 404 -184 75 -73 116
-137 146 -234 28 -86 56 -285 48 -334 -7 -42 30 -107 73 -128 46 -22 132 -19
171 5 55 33 60 54 67 298 14 485 61 946 121 1186 19 72 5 133 -33 147 -34 13
-143 11 -171 -4 -14 -6 -59 -52 -100 -100 -174 -203 -171 -203 -1501 -212
-681 -4 -850 -3 -870 8 -51 26 -44 -41 -105 997 -41 704 -80 1338 -100 1650
-8 124 -19 306 -25 405 -44 769 -83 1417 -100 1660 -5 77 -12 185 -15 240 -3
55 -8 124 -11 153 l-5 52 -140 0 c-135 0 -140 -1 -148 -22z m187 -5245 c65
-40 103 -104 109 -187 5 -57 2 -72 -21 -120 -81 -166 -262 -177 -367 -23 -31
45 -34 56 -34 121 0 82 17 125 72 180 70 70 158 80 241 29z m810 -4449 c187
-62 328 -192 428 -393 68 -138 88 -229 89 -401 0 -169 -15 -240 -77 -366 -75
-152 -168 -247 -307 -311 -126 -59 -230 -55 -375 17 -122 60 -205 146 -275
287 -130 259 -143 620 -32 860 70 148 174 249 320 309 73 31 135 30 229 -2z"/>
<path d="M7464 11334 c-139 -72 -179 -82 -385 -94 -101 -6 -692 -15 -1312 -19
-621 -5 -1130 -11 -1132 -12 -4 -5 13 -323 21 -399 5 -43 8 -50 16 -36 23 41
56 44 388 35 173 -5 569 -13 880 -19 602 -10 687 -17 835 -64 113 -36 234
-108 310 -184 53 -53 70 -78 95 -144 46 -118 69 -219 80 -340 10 -117 19 -141
66 -163 82 -39 197 -2 227 74 18 43 40 266 57 581 7 113 19 246 27 295 20 118
33 471 18 505 -9 21 -17 25 -58 27 -39 1 -63 -7 -133 -43z"/>
<path d="M3756 5755 c-3 -9 -6 -37 -6 -61 0 -64 -35 -269 -69 -409 -107 -437
-320 -853 -556 -1090 -127 -128 -195 -171 -375 -239 -300 -113 -446 -191 -589
-320 -287 -256 -415 -700 -315 -1091 66 -254 282 -462 556 -536 99 -27 304
-35 461 -19 214 22 381 76 516 169 102 69 133 81 213 81 100 0 230 17 286 38
56 21 126 101 143 164 15 57 7 126 -20 178 -12 24 -55 86 -95 139 l-73 96 -47
245 c-92 477 -106 568 -106 685 0 177 20 282 110 595 107 372 204 638 316 866
30 61 54 114 54 116 0 3 -14 22 -30 44 -17 21 -38 52 -46 69 -25 54 -140 189
-206 243 -52 43 -64 49 -71 36 -8 -14 -11 -14 -27 1 -16 15 -18 15 -24 0z
m-804 -2060 c224 -48 388 -208 449 -442 32 -119 30 -335 -4 -463 -30 -117 -72
-204 -139 -294 -120 -160 -361 -296 -524 -296 -199 0 -401 116 -482 276 -61
121 -77 194 -76 349 1 119 5 155 28 240 48 176 119 306 230 424 93 97 205 165
331 202 76 22 97 23 187 4z"/>
<path d="M8370 5253 c-127 -25 -240 -96 -308 -195 -42 -61 -59 -107 -78 -206
-13 -72 -14 -101 -5 -173 34 -261 166 -408 412 -457 77 -15 90 -15 182 1 132
23 217 67 297 155 70 76 105 141 125 237 41 195 -11 384 -142 513 -67 65 -146
106 -246 126 -91 19 -137 19 -237 -1z m194 -117 c120 -50 186 -258 158 -496
-15 -129 -42 -198 -102 -263 l-48 -52 -75 0 -76 0 -47 45 c-60 58 -91 128
-111 253 -16 93 -16 109 0 214 24 168 67 252 152 296 37 20 105 21 149 3z"/>
<path d="M9432 5259 c-78 -13 -139 -45 -193 -100 -57 -58 -79 -118 -79 -211 0
-126 61 -207 208 -278 209 -100 211 -101 232 -144 53 -111 -46 -204 -207 -194
-79 5 -86 14 -103 129 l-13 89 -63 0 -64 0 0 -138 0 -139 38 -11 c286 -84 525
-36 626 126 24 39 30 61 34 125 6 101 -10 159 -58 206 -54 52 -57 54 -189 120
-163 80 -211 121 -211 179 0 78 69 132 170 132 96 0 108 -14 125 -142 l6 -48
65 0 64 0 0 124 0 124 -52 17 c-65 21 -202 45 -248 44 -19 -1 -59 -5 -88 -10z"/>
<path d="M10389 5256 c-177 -37 -314 -154 -370 -316 -31 -90 -37 -235 -14
-332 60 -248 242 -393 495 -392 159 1 276 47 375 148 105 108 145 211 145 376
0 54 -7 122 -15 155 -44 168 -180 308 -340 350 -86 22 -199 27 -276 11z m194
-120 c65 -28 129 -127 148 -231 15 -85 6 -326 -15 -392 -21 -63 -70 -139 -109
-167 -22 -16 -43 -21 -96 -21 -58 0 -73 4 -103 27 -86 66 -138 208 -138 379 0
199 66 362 165 405 39 17 108 17 148 0z"/>
<path d="M6038 5242 l-358 -2 0 -40 c0 -39 0 -39 48 -46 26 -3 53 -11 60 -16
17 -14 18 -745 0 -783 -10 -22 -17 -25 -60 -25 l-49 0 3 -42 3 -43 243 -3 242
-2 0 45 0 45 -48 0 c-26 0 -53 5 -60 12 -8 8 -12 62 -12 175 l0 163 79 0 c90
0 91 -1 106 -75 l10 -50 48 -3 47 -3 0 181 0 181 -47 -3 -48 -3 -10 -55 -10
-55 -88 -3 -87 -3 0 176 0 175 125 0 c144 0 136 5 149 -102 l7 -58 60 0 59 0
0 129 0 129 -27 3 c-16 2 -189 3 -385 1z"/>
<path d="M7313 5242 l-193 -2 0 -39 c0 -38 1 -39 48 -48 l47 -8 3 -394 c1
-282 -1 -398 -9 -407 -6 -8 -28 -14 -49 -14 -40 0 -50 -16 -42 -67 l3 -23 385
0 385 0 -3 158 -3 157 -67 3 c-38 2 -68 -1 -69 -5 0 -4 -4 -47 -8 -95 -4 -48
-14 -94 -21 -103 -11 -13 -33 -15 -129 -13 l-116 3 -3 389 c-1 256 1 393 8
401 6 7 33 15 60 19 l50 7 0 43 0 43 -42 -1 c-24 0 -130 -2 -235 -4z"/>
<path d="M11124 5241 c-2 -2 -4 -21 -4 -42 0 -36 2 -38 38 -44 80 -14 72 29
72 -409 0 -291 -3 -395 -12 -404 -7 -7 -31 -12 -55 -12 l-43 0 0 -45 0 -45
245 0 245 0 0 45 0 45 -48 0 c-78 0 -82 9 -82 193 l0 157 85 0 c93 0 105 -8
105 -69 0 -53 8 -61 61 -61 l49 0 -2 178 -3 177 -46 3 c-50 3 -59 -7 -59 -68
0 -42 -17 -50 -107 -50 l-83 0 0 175 0 175 124 0 c90 0 127 -4 134 -13 6 -7
14 -40 18 -73 4 -32 10 -64 15 -70 5 -6 30 -10 56 -9 l48 1 3 132 c1 73 -1
132 -5 133 -47 3 -746 3 -749 0z"/>
<path d="M6530 5201 l0 -40 48 -7 c26 -3 53 -11 60 -16 17 -15 18 -778 0 -796
-7 -7 -34 -12 -60 -12 l-48 0 0 -45 0 -45 248 2 247 3 0 40 -1 40 -49 3 c-32
2 -55 9 -62 19 -10 13 -13 108 -13 397 0 210 4 386 8 392 4 6 29 14 56 18 27
3 51 7 52 9 2 2 5 19 6 38 l3 34 -247 3 -248 2 0 -39z"/>
<path d="M5697 3974 c-4 -4 -7 -52 -7 -106 l0 -98 80 0 c77 0 81 1 92 26 10
21 9 31 -3 53 -13 22 -13 29 -2 39 17 16 17 43 0 66 -10 13 -31 19 -83 23 -38
2 -73 1 -77 -3z m113 -64 c0 -5 -13 -10 -30 -10 -16 0 -30 5 -30 10 0 6 14 10
30 10 17 0 30 -4 30 -10z m-2 -77 c2 -9 -7 -13 -27 -13 -30 0 -39 9 -24 24 11
10 46 3 51 -11z"/>
<path d="M6408 3968 c-13 -10 -78 -172 -78 -195 0 -8 60 -2 65 7 3 6 21 10 40
10 19 0 37 -4 40 -10 8 -12 65 -13 65 -1 0 5 -15 51 -34 102 -29 80 -37 94
-57 97 -13 2 -32 -3 -41 -10z m42 -99 c0 -11 -7 -19 -16 -19 -11 0 -14 5 -10
16 3 9 6 20 6 25 0 6 5 7 10 4 6 -3 10 -15 10 -26z"/>
<path d="M7017 3973 c-4 -3 -7 -51 -7 -105 l0 -98 30 0 c27 0 30 3 30 30 0 38
10 38 32 0 13 -23 24 -30 48 -30 l30 0 -15 36 c-13 32 -13 37 0 51 8 8 15 30
15 48 0 48 -37 75 -105 75 -28 0 -55 -3 -58 -7z m103 -67 c0 -16 -27 -29 -41
-20 -19 11 -9 34 16 34 15 0 25 -6 25 -14z"/>
<path d="M7671 3966 c-8 -9 -11 -46 -9 -103 l3 -88 77 -3 c72 -3 78 -1 93 22
14 20 14 29 4 48 -7 13 -17 26 -23 30 -8 5 -7 8 2 8 19 0 31 41 19 67 -11 25
-34 33 -103 33 -32 0 -56 -5 -63 -14z m109 -56 c0 -5 -11 -10 -25 -10 -14 0
-25 5 -25 10 0 6 11 10 25 10 14 0 25 -4 25 -10z m-2 -77 c2 -8 -6 -13 -22
-13 -26 0 -40 12 -29 24 11 11 46 2 51 -11z"/>
<path d="M8327 3974 c-4 -4 -7 -52 -7 -106 l0 -98 75 0 c73 0 75 1 75 25 0 23
-4 25 -46 25 -59 0 -55 24 5 28 37 3 42 6 39 25 -2 18 -11 23 -45 25 -58 4
-55 22 3 22 44 0 45 1 42 28 -3 26 -5 27 -68 30 -36 1 -69 0 -73 -4z"/>
<path d="M8954 3967 c-3 -8 -4 -54 -2 -103 3 -89 3 -89 31 -92 24 -3 27 0 27
27 0 39 15 40 35 1 12 -23 22 -30 45 -30 32 0 37 10 18 39 -9 15 -8 26 6 55
21 45 11 85 -25 103 -33 17 -128 17 -135 0z m111 -56 c7 -12 -25 -30 -42 -24
-7 3 -13 11 -13 19 0 16 45 20 55 5z"/>
<path d="M9621 3961 c-26 -26 -27 -72 -3 -93 9 -9 32 -19 50 -23 50 -10 40
-29 -12 -22 -43 6 -56 -2 -56 -32 0 -12 48 -31 76 -31 101 0 116 113 18 139
-15 4 -30 13 -32 21 -5 13 10 12 50 -5 11 -4 20 0 28 15 16 29 3 41 -53 47
-36 4 -49 1 -66 -16z"/>
<path d="M10247 3974 c-4 -4 -7 -52 -7 -106 l0 -98 30 0 c28 0 30 2 30 41 0
39 1 40 33 37 29 -3 32 -6 35 -40 3 -35 6 -38 33 -38 l30 0 -3 103 c-3 101 -3
102 -28 102 -22 0 -25 -5 -28 -37 -3 -36 -5 -38 -37 -38 -32 0 -34 2 -37 38
-2 28 -8 38 -23 40 -12 2 -24 0 -28 -4z"/>
<path d="M10963 3970 c-52 -21 -69 -134 -28 -180 40 -45 135 -37 165 13 62
101 -28 211 -137 167z m85 -62 c7 -7 12 -24 12 -38 0 -53 -57 -69 -86 -25 -15
23 -15 27 0 50 18 27 54 33 74 13z"/>
<path d="M11603 3973 c-9 -3 -13 -34 -13 -104 l0 -99 30 0 c27 0 30 3 30 30 0
25 4 30 25 30 38 0 84 27 90 53 9 34 -11 76 -40 87 -27 10 -101 12 -122 3z
m105 -65 c-7 -20 -58 -23 -58 -4 0 11 10 16 31 16 20 0 29 -4 27 -12z"/>
</g>
</svg>
