<?xml version="1.0" standalone="no"?>
<!DOCTYPE svg PUBLIC "-//W3C//DTD SVG 20010904//EN"
 "http://www.w3.org/TR/2001/REC-SVG-20010904/DTD/svg10.dtd">
<svg version="1.0" xmlns="http://www.w3.org/2000/svg"
 width="1000.000000pt" height="1000.000000pt" viewBox="0 0 1000.000000 1000.000000"
 preserveAspectRatio="xMidYMid meet">
<metadata>
Created by potrace 1.14, written by Peter Selinger 2001-2017
</metadata>
<g transform="translate(0.000000,1000.000000) scale(0.100000,-0.100000)"
fill="#000000" stroke="none">
<path d="M0 5000 l0 -5000 5000 0 5000 0 0 5000 0 5000 -5000 0 -5000 0 0
-5000z m4994 4421 c8 -16 18 -101 25 -216 7 -104 21 -323 31 -485 11 -162 24
-385 30 -495 6 -110 19 -333 30 -495 10 -162 24 -389 30 -505 20 -379 41 -658
51 -676 9 -18 34 -19 544 -19 512 0 641 6 725 32 22 7 60 37 101 79 69 72 103
86 129 54 13 -16 9 -59 -20 -225 -17 -97 -40 -381 -40 -505 0 -140 -10 -165
-64 -165 -50 0 -62 22 -74 137 -16 155 -56 229 -162 296 -97 61 -149 67 -650
77 -263 5 -452 4 -462 -1 -9 -5 -19 -17 -22 -26 -2 -10 -7 -139 -11 -288 -12
-490 21 -740 126 -947 46 -92 49 -136 14 -205 -53 -107 -53 -263 0 -416 34
-100 84 -167 196 -263 174 -150 268 -271 320 -414 57 -155 50 -300 -22 -459
-37 -81 -75 -128 -216 -266 -103 -101 -113 -115 -129 -170 -37 -130 14 -202
256 -370 94 -64 177 -127 185 -138 34 -48 2 -102 -59 -100 -111 3 -415 240
-587 458 -75 95 -180 258 -227 352 -88 176 -130 403 -112 605 9 111 56 339 90
443 11 33 36 123 56 200 58 230 58 448 -1 717 -49 220 -136 381 -283 526 l-95
93 -9 172 c-14 283 -12 644 5 852 9 105 21 269 27 365 6 96 15 240 21 320 6
80 8 210 5 290 -13 284 -27 506 -37 565 -32 188 -153 265 -421 265 -99 0 -118
5 -118 31 0 40 30 44 350 44 l305 0 6 85 c4 47 12 171 18 275 32 513 33 524
74 542 31 14 56 5 71 -26z m1833 -935 c-5 -127 -31 -449 -46 -576 -8 -62 -14
-79 -36 -98 -46 -39 -95 -9 -95 57 0 41 -32 172 -53 222 -21 51 -79 104 -150
139 -125 61 -126 61 -696 72 -368 8 -529 8 -541 0 -16 -9 -17 -3 -19 71 -1 45
-4 96 -7 113 l-6 31 213 6 c117 4 402 7 633 7 532 0 620 7 712 53 38 19 75 32
82 29 11 -4 13 -30 9 -126z m-2066 -3063 c20 -21 54 -65 76 -98 l41 -60 -29
-57 c-61 -121 -132 -318 -194 -543 -29 -104 -38 -153 -41 -245 -4 -105 -1
-133 39 -335 l43 -220 52 -71 c45 -62 52 -78 52 -119 0 -53 -25 -97 -69 -120
-15 -7 -73 -18 -129 -23 -91 -8 -106 -12 -154 -44 -103 -68 -295 -117 -416
-105 -313 30 -479 285 -402 616 22 91 73 193 126 253 76 86 215 171 355 217
180 59 304 186 423 431 82 171 135 351 153 522 7 66 13 66 74 1z m1422 -3690
c23 -16 55 -48 72 -72 26 -37 30 -51 30 -109 l0 -67 -60 0 -60 0 -8 50 c-10
58 -37 92 -82 101 -76 14 -131 -54 -123 -152 7 -79 23 -96 132 -138 168 -65
195 -98 203 -244 9 -164 -27 -261 -115 -303 -93 -45 -211 -31 -281 34 -44 42
-81 121 -81 175 l0 42 70 0 70 0 0 -46 c0 -37 5 -51 30 -76 28 -28 35 -30 81
-26 78 8 93 29 97 137 5 124 -3 138 -117 185 -151 63 -190 100 -212 204 -30
146 33 285 149 329 60 22 156 11 205 -24z m1119 23 c56 -20 114 -71 134 -118
16 -38 19 -78 22 -335 4 -326 -3 -388 -46 -443 -34 -42 -107 -81 -167 -87 -86
-10 -188 45 -224 121 -20 40 -21 60 -21 377 1 325 2 335 23 375 54 101 173
148 279 110z m-4586 -20 c93 -43 136 -132 129 -265 -3 -78 -20 -116 -64 -149
l-31 -22 39 -39 c50 -50 66 -113 58 -228 -7 -97 -31 -157 -82 -202 -44 -38
-107 -51 -250 -51 l-115 0 0 490 0 490 133 0 c118 0 137 -3 183 -24z m528 12
c5 -21 46 -206 67 -303 18 -84 30 -141 110 -490 16 -71 32 -140 34 -152 5 -22
3 -23 -59 -23 l-65 0 -10 38 c-5 20 -13 60 -16 87 -12 91 -4 85 -120 85 l-103
0 -19 -102 -19 -103 -68 -3 c-62 -3 -68 -1 -62 15 4 10 18 70 32 133 27 125
67 303 119 530 19 80 39 172 45 205 19 100 15 95 76 95 35 0 56 -4 58 -12z
m609 1 c53 -14 112 -71 134 -127 13 -35 18 -73 17 -152 -1 -121 -17 -167 -80
-217 l-36 -29 75 -222 75 -222 -68 0 -69 0 -60 188 c-32 103 -62 197 -66 210
-5 19 -13 22 -56 22 l-49 0 0 -210 0 -210 -65 0 -65 0 0 490 0 490 138 0 c75
0 154 -5 175 -11z m584 -4 c94 -39 138 -102 149 -213 9 -86 -9 -153 -55 -199
l-37 -37 37 -37 c41 -41 59 -100 59 -196 0 -144 -66 -250 -168 -272 -75 -16
-282 -15 -282 2 0 6 -1 227 -3 490 l-2 477 133 0 c96 0 143 -4 169 -15z m703
-45 l0 -60 -140 0 -141 0 3 -152 3 -153 123 -3 123 -3 -3 -57 -3 -57 -122 -3
-123 -3 0 -149 0 -150 140 0 140 0 0 -65 0 -65 -205 0 -205 0 0 490 0 490 205
0 205 0 0 -60z m466 25 c72 -44 97 -101 102 -226 5 -126 -12 -184 -72 -236
l-43 -37 73 -218 c41 -120 74 -220 74 -223 0 -3 -31 -5 -70 -5 -45 0 -70 4
-70 11 0 6 -29 102 -65 213 -64 200 -65 202 -92 200 -16 -1 -36 -3 -45 -3 -17
-1 -18 -18 -18 -211 l0 -210 -65 0 -65 0 0 491 0 490 153 -3 c151 -3 155 -4
203 -33z m936 -177 l3 -213 90 0 90 0 3 213 2 212 65 0 65 0 0 -490 0 -490
-65 0 -65 0 0 220 0 220 -95 0 -95 0 0 -220 0 -220 -65 0 -65 0 0 490 0 490
65 0 65 0 2 -212z m1348 202 c50 -14 105 -62 130 -115 28 -57 38 -208 20 -283
-28 -119 -96 -174 -225 -182 l-80 -5 -3 -192 -2 -193 -65 0 -65 0 0 490 0 490
128 0 c70 0 143 -4 162 -10z"/>
<path d="M4841 6483 c-35 -18 -70 -77 -71 -121 0 -33 36 -99 66 -119 15 -9 47
-17 74 -17 52 -1 87 18 123 67 25 32 26 107 2 143 -39 60 -125 81 -194 47z"/>
<path d="M5270 4001 c-164 -68 -246 -267 -206 -500 26 -149 97 -269 190 -317
41 -23 116 -44 153 -44 104 0 228 93 283 212 58 124 54 291 -9 424 -82 173
-278 281 -411 225z"/>
<path d="M4081 4331 c-117 -44 -190 -111 -250 -228 -102 -204 -72 -450 68
-547 143 -99 320 -78 465 55 102 93 152 227 144 385 -6 112 -42 198 -109 262
-80 78 -219 109 -318 73z"/>
<path d="M7185 1631 c-11 -5 -29 -19 -40 -31 -19 -21 -20 -36 -20 -332 l0
-310 33 -29 c51 -46 134 -32 161 28 7 16 11 127 11 316 0 320 0 321 -60 352
-32 17 -55 18 -85 6z"/>
<path d="M2530 1495 l0 -145 48 1 c70 1 94 11 119 48 18 26 23 48 23 93 0 103
-44 148 -145 148 l-45 0 0 -145z"/>
<path d="M2530 1075 l0 -165 58 0 c100 0 132 41 132 170 0 127 -29 160 -141
160 l-49 0 0 -165z"/>
<path d="M3180 1479 c0 -2 -7 -36 -15 -74 -32 -145 -55 -278 -49 -286 3 -5 37
-9 76 -9 l71 0 -6 33 c-32 184 -61 324 -68 332 -5 5 -9 7 -9 4z"/>
<path d="M3675 1628 c-3 -7 -4 -81 -3 -163 l3 -150 55 0 c112 1 138 24 147
133 7 83 -9 146 -42 168 -35 23 -153 32 -160 12z"/>
<path d="M4272 1498 l3 -143 56 0 c69 0 105 18 119 58 14 41 12 136 -3 167
-17 34 -73 60 -130 60 l-48 0 3 -142z"/>
<path d="M4270 1075 l0 -165 55 0 c106 0 135 36 135 168 0 45 -4 92 -10 106
-13 35 -59 56 -125 56 l-55 0 0 -165z"/>
<path d="M5382 1478 l3 -163 63 2 c108 3 134 34 136 158 1 63 -3 87 -17 109
-24 36 -73 56 -137 56 l-50 0 2 -162z"/>
<path d="M7730 1465 l0 -175 66 0 c59 0 68 3 95 29 28 29 29 32 29 135 0 57
-4 116 -10 131 -13 33 -64 55 -130 55 l-50 0 0 -175z"/>
</g>
</svg>
